# xmcd CD database file
#
# Track frame offsets:
#	150
#	38098
#	64260
#	99477
#	125876
#	156203
#	197425
#	222681
#
# Disc length: 3423 seconds
#
# Revision: 0
# Processed by: cddbd v1.5.1PL0 Copyright (c) Steve Scherf et al.
# Submitted via: CDex 1.51
#
DISCID=760d5d08
DTITLE=Jonathan Kreisberg - New for Now
DYEAR=1900
DGENRE=Jazz
TTITLE0=Gone With The Wind
TTITLE1=New For Now
TTITLE2=Stardust
TTITLE3=Peru
TTITLE4=Five Bucks A Bungalow
TTITLE5=From The Ashes
TTITLE6=Ask Me Now
TTITLE7=All Or Nothing At All
EXTD=
EXTT0=
EXTT1=
EXTT2=
EXTT3=
EXTT4=
EXTT5=
EXTT6=
EXTT7=
PLAYORDER=
